<mxfile host="app.diagrams.net" modified="2024-01-28T13:56:31.935Z" agent="Mozilla/5.0 (Windows NT 10.0; Win64; x64) AppleWebKit/537.36 (KHTML, like Gecko) Chrome/121.0.0.0 Safari/537.36" version="23.0.2" etag="I4CdhsXxgutBiWBJXjMX" type="github">
  <diagram name="Page-1" id="rCKmGoiemVa1Q6YaI_oa">
    <mxGraphModel>
      <root>
        <mxCell id="0" />
        <mxCell id="1" parent="0" />
      </root>
    </mxGraphModel>
  </diagram>
</mxfile>
